<?xml version="1.0" standalone="no"?><svg xmlns="http://www.w3.org/2000/svg" viewBox="0 0 1440 320"><path fill="#3aa2cc" fill-opacity="0.9" d="M0,128L40,106.7C80,85,160,43,240,26.7C320,11,400,21,480,48C560,75,640,117,720,117.3C800,117,880,75,960,85.3C1040,96,1120,160,1200,186.7C1280,213,1360,203,1400,197.3L1440,192L1440,320L1400,320C1360,320,1280,320,1200,320C1120,320,1040,320,960,320C880,320,800,320,720,320C640,320,560,320,480,320C400,320,320,320,240,320C160,320,80,320,40,320L0,320Z"></path></svg>